<svg viewBox="0 0 680 360" width="680" xmlns="http://www.w3.org/2000/svg" role="img" aria-label="ab42: five fresh provisioning draws, each with clamped and un-clamped decode means at 8 users; the un-clamped arm leads in every draw while draw levels scatter across 6.3 percent">
  <rect x="0" y="0" width="680" height="360" fill="#ffffff"/>
  <g font-family="Segoe UI, Helvetica, Arial, sans-serif">
  <g font-size="12" fill="#52514e">
    <circle cx="36" cy="18" r="5" fill="#888780"/>
    <text x="46" y="22">clamped (2.70 GHz, verified per block)</text>
    <circle cx="300" cy="18" r="5" fill="#1D9E75"/>
    <text x="310" y="22">un-clamped (3.90 GHz, verified per block)</text>
  </g>
  <g stroke="#e1e0d9" stroke-width="1">
    <line x1="147" y1="44" x2="147" y2="292"/><line x1="280" y1="44" x2="280" y2="292"/><line x1="413" y1="44" x2="413" y2="292"/><line x1="546" y1="44" x2="546" y2="292"/>
  </g>
  <g font-size="11" fill="#898781" text-anchor="middle">
    <text x="147" y="308">96</text><text x="280" y="308">98</text><text x="413" y="308">100</text><text x="546" y="308">102</text>
    <text x="346" y="326">decode tokens/s/user @ 8 users, capture window 896-1024 — each row = one fresh provisioning draw (4 clamped + 4 un-clamped interleaved blocks, toggled live on the same instance)</text>
  </g>
  <g font-size="13" fill="#52514e">
    <text x="8" y="77">draw 1</text>
    <text x="8" y="122">draw 2</text>
    <text x="8" y="167">draw 3</text>
    <text x="8" y="212">draw 4</text>
    <text x="8" y="257">draw 5</text>
  </g>
  <g>
    <line x1="350" y1="73" x2="406" y2="73" stroke="#888780" stroke-width="2"/>
    <circle cx="350" cy="73" r="6" fill="#888780"/><circle cx="406" cy="73" r="6" fill="#1D9E75"/>
    <text x="340" y="77" font-size="12" fill="#52514e" text-anchor="end">99.05</text>
    <text x="416" y="77" font-size="12" fill="#1a1a1a">99.90  <tspan fill="#898781">+0.86%</tspan></text>
  </g>
  <g>
    <line x1="550" y1="118" x2="621" y2="118" stroke="#888780" stroke-width="2"/>
    <circle cx="550" cy="118" r="6" fill="#888780"/><circle cx="621" cy="118" r="6" fill="#1D9E75"/>
    <text x="540" y="122" font-size="12" fill="#52514e" text-anchor="end">102.06</text>
    <text x="631" y="122" font-size="12" fill="#1a1a1a">103.12</text>
    <text x="621" y="103" font-size="11" fill="#898781" text-anchor="middle">+1.04%</text>
  </g>
  <g>
    <line x1="136" y1="163" x2="218" y2="163" stroke="#888780" stroke-width="2"/>
    <circle cx="136" cy="163" r="6" fill="#888780"/><circle cx="218" cy="163" r="6" fill="#1D9E75"/>
    <text x="126" y="167" font-size="12" fill="#52514e" text-anchor="end">95.84</text>
    <text x="228" y="167" font-size="12" fill="#1a1a1a">97.07  <tspan fill="#898781">+1.29%</tspan></text>
  </g>
  <g>
    <line x1="194" y1="208" x2="282" y2="208" stroke="#888780" stroke-width="2"/>
    <circle cx="194" cy="208" r="6" fill="#888780"/><circle cx="282" cy="208" r="6" fill="#1D9E75"/>
    <text x="184" y="212" font-size="12" fill="#52514e" text-anchor="end">96.70</text>
    <text x="292" y="212" font-size="12" fill="#1a1a1a">98.04  <tspan fill="#898781">+1.38%</tspan></text>
  </g>
  <g>
    <line x1="188" y1="253" x2="254" y2="253" stroke="#888780" stroke-width="2"/>
    <circle cx="188" cy="253" r="6" fill="#888780"/><circle cx="254" cy="253" r="6" fill="#1D9E75"/>
    <text x="178" y="257" font-size="12" fill="#52514e" text-anchor="end">96.61</text>
    <text x="264" y="257" font-size="12" fill="#1a1a1a">97.61  <tspan fill="#898781">+1.03%</tspan></text>
  </g>
  <text x="30" y="350" font-size="12" fill="#1a1a1a">green leads in 5 of 5 draws: +1.12% ± 0.21 — while the rows themselves scatter 6.3% (the provisioning lottery)</text>
  </g>
</svg>
