<?xml version="1.0" encoding="UTF-8"?>
<svg xmlns="http://www.w3.org/2000/svg" viewBox="0 0 1100 1650" role="img" aria-labelledby="title desc">
  <title id="title">Interpreter notes capture</title>
  <desc id="desc">A cleaned SVG capture of handwritten notes describing GOLD specs flowing into integrated commands, interpreter responsibilities, validation, control-plane mock software, and test metrics.</desc>

  <defs>
    <marker id="arrow" viewBox="0 0 10 10" refX="8.2" refY="5" markerWidth="7" markerHeight="7" orient="auto-start-reverse">
      <path d="M 0 0 L 10 5 L 0 10 z" fill="#202020"/>
    </marker>
    <style>
      .paper { fill: #f8f5ed; }
      .rule { stroke: #7db4d7; stroke-width: 1.6; opacity: 0.75; }
      .margin { stroke: #cf5c70; stroke-width: 1.7; opacity: 0.7; }
      .ink { stroke: #202020; stroke-width: 3.2; stroke-linecap: round; stroke-linejoin: round; fill: none; }
      .ink-thin { stroke: #202020; stroke-width: 2.2; stroke-linecap: round; stroke-linejoin: round; fill: none; }
      .box { fill: rgba(255,255,255,0.2); stroke: #202020; stroke-width: 2.6; rx: 4; }
      .title { font: 42px "Segoe Print", "Comic Sans MS", "Bradley Hand ITC", cursive; fill: #202020; }
      .section { font: 31px "Segoe Print", "Comic Sans MS", "Bradley Hand ITC", cursive; fill: #202020; }
      .text { font: 30px "Segoe Print", "Comic Sans MS", "Bradley Hand ITC", cursive; fill: #202020; }
      .small { font: 24px "Segoe Print", "Comic Sans MS", "Bradley Hand ITC", cursive; fill: #202020; }
      .tiny { font: 20px "Segoe Print", "Comic Sans MS", "Bradley Hand ITC", cursive; fill: #202020; }
      .bullet { fill: #202020; }
    </style>
  </defs>

  <rect class="paper" x="0" y="0" width="1100" height="1650"/>

  <!-- notebook paper lines -->
  <g>
    <line class="rule" x1="0" y1="80" x2="1100" y2="64"/>
    <line class="rule" x1="0" y1="125" x2="1100" y2="110"/>
    <line class="rule" x1="0" y1="170" x2="1100" y2="156"/>
    <line class="rule" x1="0" y1="215" x2="1100" y2="202"/>
    <line class="rule" x1="0" y1="260" x2="1100" y2="248"/>
    <line class="rule" x1="0" y1="305" x2="1100" y2="294"/>
    <line class="rule" x1="0" y1="350" x2="1100" y2="340"/>
    <line class="rule" x1="0" y1="395" x2="1100" y2="386"/>
    <line class="rule" x1="0" y1="440" x2="1100" y2="432"/>
    <line class="rule" x1="0" y1="485" x2="1100" y2="478"/>
    <line class="rule" x1="0" y1="530" x2="1100" y2="524"/>
    <line class="rule" x1="0" y1="575" x2="1100" y2="570"/>
    <line class="rule" x1="0" y1="620" x2="1100" y2="616"/>
    <line class="rule" x1="0" y1="665" x2="1100" y2="662"/>
    <line class="rule" x1="0" y1="710" x2="1100" y2="708"/>
    <line class="rule" x1="0" y1="755" x2="1100" y2="754"/>
    <line class="rule" x1="0" y1="800" x2="1100" y2="800"/>
    <line class="rule" x1="0" y1="845" x2="1100" y2="846"/>
    <line class="rule" x1="0" y1="890" x2="1100" y2="892"/>
    <line class="rule" x1="0" y1="935" x2="1100" y2="938"/>
    <line class="rule" x1="0" y1="980" x2="1100" y2="984"/>
    <line class="rule" x1="0" y1="1025" x2="1100" y2="1030"/>
    <line class="rule" x1="0" y1="1070" x2="1100" y2="1076"/>
    <line class="rule" x1="0" y1="1115" x2="1100" y2="1122"/>
    <line class="rule" x1="0" y1="1160" x2="1100" y2="1168"/>
    <line class="rule" x1="0" y1="1205" x2="1100" y2="1214"/>
    <line class="rule" x1="0" y1="1250" x2="1100" y2="1260"/>
    <line class="rule" x1="0" y1="1295" x2="1100" y2="1306"/>
    <line class="rule" x1="0" y1="1340" x2="1100" y2="1352"/>
    <line class="rule" x1="0" y1="1385" x2="1100" y2="1398"/>
    <line class="rule" x1="0" y1="1430" x2="1100" y2="1444"/>
    <line class="rule" x1="0" y1="1475" x2="1100" y2="1490"/>
    <line class="rule" x1="0" y1="1520" x2="1100" y2="1536"/>
    <line class="rule" x1="0" y1="1565" x2="1100" y2="1582"/>
    <line class="rule" x1="0" y1="1610" x2="1100" y2="1628"/>
  </g>
  <line class="margin" x1="175" y1="0" x2="175" y2="1650"/>

  <!-- top: GOLD spec to integrated commands -->
  <text class="title" x="95" y="145">GOLD</text>

  <circle class="bullet" cx="235" cy="185" r="3.5"/>
  <text class="section" x="260" y="197">spec</text>
  <path class="ink-thin" d="M260 215 C310 219, 350 217, 395 211"/>

  <path class="ink-thin" marker-end="url(#arrow)" d="M420 185 C485 177, 530 178, 570 178"/>
  <path class="ink-thin" stroke-dasharray="4 14" d="M575 178 C625 180, 665 180, 705 180"/>
  <path class="ink-thin" marker-end="url(#arrow)" d="M710 180 C760 179, 805 180, 842 180"/>

  <text class="section" x="852" y="197">spec</text>
  <path class="ink-thin" d="M852 215 C902 219, 944 217, 990 211"/>

  <rect class="box" x="365" y="285" width="380" height="76"/>
  <text class="section" x="390" y="338">Integrated Cmds</text>

  <path class="ink-thin" marker-end="url(#arrow)" d="M325 225 C350 258, 382 283, 397 293"/>
  <path class="ink-thin" marker-end="url(#arrow)" d="M550 190 C550 230, 550 260, 550 285"/>
  <path class="ink-thin" marker-end="url(#arrow)" d="M900 218 C850 255, 785 280, 730 296"/>
  <path class="ink-thin" marker-end="url(#arrow)" d="M455 370 C410 425, 395 460, 388 500"/>

  <!-- Interpreter responsibilities -->
  <text class="section" x="105" y="485">Interpreter</text>

  <circle class="bullet" cx="220" cy="530" r="3.5"/>
  <text class="text" x="250" y="540">Dispatch cmds</text>

  <circle class="bullet" cx="220" cy="585" r="3.5"/>
  <text class="text" x="278" y="598">validate security</text>

  <circle class="bullet" cx="220" cy="640" r="3.5"/>
  <text class="text" x="262" y="650">multi threading / devide &amp; distribute</text>

  <circle class="bullet" cx="220" cy="720" r="3.5"/>
  <text class="text" x="250" y="730">Progress Counter based flow control</text>

  <circle class="bullet" cx="220" cy="775" r="3.5"/>
  <text class="text" x="252" y="784">Host Communication: recv GOLD, send logits</text>

  <circle class="bullet" cx="285" cy="820" r="3.5"/>
  <text class="text" x="312" y="828">PCIe</text>

  <!-- Validate section -->
  <text class="section" x="85" y="970">Validate</text>

  <circle class="bullet" cx="220" cy="1015" r="3.5"/>
  <text class="text" x="255" y="1025">Terminus based</text>

  <circle class="bullet" cx="295" cy="1060" r="3.5"/>
  <text class="text" x="325" y="1072">Integrated Cmds:</text>
  <text class="small" x="610" y="1072">register reads to verify</text>
  <path class="ink-thin" marker-end="url(#arrow)" d="M475 1085 C475 1118, 475 1138, 475 1155"/>
  <text class="small" x="495" y="1138">as more cmds integrated</text>

  <circle class="bullet" cx="305" cy="1175" r="3.5"/>
  <text class="text" x="335" y="1185">run full transformer</text>

  <circle class="bullet" cx="220" cy="1290" r="3.5"/>
  <text class="text" x="252" y="1300">Control-plane centric sw mock</text>

  <!-- Test metrics -->
  <circle class="bullet" cx="220" cy="1380" r="3.5"/>
  <text class="text" x="252" y="1390">Test metrics</text>

  <circle class="bullet" cx="250" cy="1435" r="3.5"/>
  <text class="text" x="285" y="1445">Correctness</text>

  <circle class="bullet" cx="250" cy="1500" r="3.5"/>
  <text class="text" x="285" y="1510">Perf, until Palladium</text>
</svg>
