<svg xmlns="http://www.w3.org/2000/svg" viewBox="0 0 900 350" width="900" height="350" font-family="system-ui, sans-serif" role="img" aria-label="AMX decode boost versus context length, eight commit-pinned points from 256 to 32768 tokens: 0.6, 1.9, 1.7, 5.0, 14.9, 18.0, 26.0, 27.6 percent; the curve flattens between 16K and 32K"><rect width="900" height="350" fill="#ffffff"/><text x="14" y="24" font-size="13" font-weight="600" fill="#14161a">Deployable AMX boost vs context - complete, commit-pinned (clean AVX binary vs arena-mirror, 1u decode)</text><text x="14" y="40" font-size="11" fill="#5b5f66">blue = 2026-09-01 rounds, both binaries built from commit 60d66d9c04, medians of 8 reps, spreads at most 2%; faint orange = 08-21 vintage points</text><line x1="110" y1="280" x2="870" y2="280" stroke="#d9d6cf"/><text x="102" y="284" font-size="10" fill="#5b5f66" text-anchor="end">+0%</text><line x1="110" y1="243" x2="870" y2="243" stroke="#d9d6cf"/><text x="102" y="247" font-size="10" fill="#5b5f66" text-anchor="end">+5%</text><line x1="110" y1="207" x2="870" y2="207" stroke="#d9d6cf"/><text x="102" y="211" font-size="10" fill="#5b5f66" text-anchor="end">+10%</text><line x1="110" y1="170" x2="870" y2="170" stroke="#d9d6cf"/><text x="102" y="174" font-size="10" fill="#5b5f66" text-anchor="end">+15%</text><line x1="110" y1="133" x2="870" y2="133" stroke="#d9d6cf"/><text x="102" y="137" font-size="10" fill="#5b5f66" text-anchor="end">+20%</text><line x1="110" y1="97" x2="870" y2="97" stroke="#d9d6cf"/><text x="102" y="101" font-size="10" fill="#5b5f66" text-anchor="end">+25%</text><line x1="110" y1="60" x2="870" y2="60" stroke="#d9d6cf"/><text x="102" y="64" font-size="10" fill="#5b5f66" text-anchor="end">+30%</text><polyline points="110,276 219,266 327,268 436,243 544,171 653,148 761,89 870,78" stroke="#2a78d6" stroke-width="2" fill="none"/><rect x="432" y="243" width="8" height="8" fill="#eb6834" opacity="0.55"><title>prompt 2048 (08-21 vintage): +4.5%</title></rect><rect x="649" y="132" width="8" height="8" fill="#eb6834" opacity="0.55"><title>prompt 8192 (08-21 vintage): +19.6%</title></rect><circle cx="110" cy="276" r="5" fill="#2a78d6" stroke="#fff" stroke-width="2"><title>prompt 256: +0.6%</title></circle><text x="110" y="262" font-size="11" fill="#14161a" text-anchor="middle" font-weight="600">+0.6%</text><circle cx="219" cy="266" r="5" fill="#2a78d6" stroke="#fff" stroke-width="2"><title>prompt 512: +1.9%</title></circle><text x="219" y="252" font-size="11" fill="#14161a" text-anchor="middle" font-weight="600">+1.9%</text><circle cx="327" cy="268" r="5" fill="#2a78d6" stroke="#fff" stroke-width="2"><title>prompt 1024: +1.7%</title></circle><text x="327" y="254" font-size="11" fill="#14161a" text-anchor="middle" font-weight="600">+1.7%</text><circle cx="436" cy="243" r="5" fill="#2a78d6" stroke="#fff" stroke-width="2"><title>prompt 2048: +5.0%</title></circle><text x="436" y="231" font-size="11" fill="#14161a" text-anchor="middle" font-weight="600">+5.0%</text><circle cx="544" cy="171" r="5" fill="#2a78d6" stroke="#fff" stroke-width="2"><title>prompt 4096: +14.9%</title></circle><text x="544" y="159" font-size="11" fill="#14161a" text-anchor="middle" font-weight="600">+14.9%</text><circle cx="653" cy="148" r="5" fill="#2a78d6" stroke="#fff" stroke-width="2"><title>prompt 8192: +18.0%</title></circle><text x="653" y="136" font-size="11" fill="#14161a" text-anchor="middle" font-weight="600">+18.0%</text><circle cx="761" cy="89" r="5" fill="#2a78d6" stroke="#fff" stroke-width="2"><title>prompt 16384: +26.0%</title></circle><text x="761" y="77" font-size="11" fill="#14161a" text-anchor="middle" font-weight="600">+26.0%</text><circle cx="870" cy="78" r="5" fill="#2a78d6" stroke="#fff" stroke-width="2"><title>prompt 32768: +27.6%</title></circle><text x="870" y="66" font-size="11" fill="#14161a" text-anchor="middle" font-weight="600">+27.6%</text><text x="110" y="298" font-size="10" fill="#5b5f66" text-anchor="middle">256</text><text x="219" y="298" font-size="10" fill="#5b5f66" text-anchor="middle">512</text><text x="327" y="298" font-size="10" fill="#5b5f66" text-anchor="middle">1024</text><text x="436" y="298" font-size="10" fill="#5b5f66" text-anchor="middle">2048</text><text x="544" y="298" font-size="10" fill="#5b5f66" text-anchor="middle">4096</text><text x="653" y="298" font-size="10" fill="#5b5f66" text-anchor="middle">8192</text><text x="761" y="298" font-size="10" fill="#5b5f66" text-anchor="middle">16384</text><text x="870" y="298" font-size="10" fill="#5b5f66" text-anchor="middle">32768</text><text x="490" y="316" font-size="10.5" fill="#5b5f66" text-anchor="middle">prompt length (tokens, log scale)</text><text x="860" y="102" font-size="10.5" fill="#14161a" text-anchor="end">flattening: +26.0% at 16K, +27.6% at 32K</text></svg>